<?xml version="1.0" standalone="no"?><!DOCTYPE svg PUBLIC "-//W3C//DTD SVG 1.1//EN"
		"http://www.w3.org/Graphics/SVG/1.1/DTD/svg11.dtd">
<svg t="1581415297687" class="icon" viewBox="0 0 1024 1024" version="1.1" xmlns="http://www.w3.org/2000/svg" p-id="4987"
	 width="128" height="128">
	<defs>
		<style type="text/css"></style>
	</defs>
	<path d="M614.4 641.7H512c-20.5 0-34.1-13.7-34.1-34.1 0-20.5 13.7-34.1 34.1-34.1h102.4V184.3H68.3v392.5H239c20.5 0 34.1 13.7 34.1 34.1 0 20.5-13.7 34.1-34.1 34.1H68.3C30.7 645.1 0 614.4 0 580.3v-396c0-37.5 30.7-64.9 68.3-64.9h546.1c37.5 0 68.3 30.7 68.3 64.9v392.5c0 37.6-30.8 64.9-68.3 64.9z m0 0"
		  fill="#d81e06" p-id="4988"></path>
	<path d="M955.7 904.5H409.6c-37.5 0-68.3-30.7-68.3-64.9V447.1c0-37.5 30.7-64.9 68.3-64.9H512c20.5 0 34.1 13.7 34.1 34.1 0 17.1-13.7 34.1-34.1 34.1H409.6v392.5h546.1V447.1H785.1c-20.5 0-34.1-13.7-34.1-34.1 0-17.1 13.7-34.1 34.1-34.1h170.7c37.5 0 68.3 30.7 68.3 64.9v392.5c-0.1 37.5-30.8 68.2-68.4 68.2z m0 0"
		  fill="#d81e06" p-id="4989"></path>
</svg>